<svg width="18" height="19" viewBox="0 0 18 19" fill="none" xmlns="http://www.w3.org/2000/svg">
<g filter="url(#filter0_d_5_201)">
<path fill-rule="evenodd" clip-rule="evenodd" d="M10.9443 -1.09711e-07C12.1447 -1.09711e-07 12.7449 0.823739 12.7449 1.76761C12.7449 2.94631 11.7022 4.0365 10.345 4.0365C9.20816 4.0365 8.54525 3.35909 8.5766 2.23909C8.5766 1.29703 9.36583 -1.09711e-07 10.9443 -1.09711e-07V-1.09711e-07ZM7.25082 18.0644C6.30303 18.0644 5.60876 17.4755 6.27168 14.8814L7.35922 10.2822C7.54824 9.54701 7.57959 9.25166 7.35922 9.25166C7.07524 9.25166 5.84616 9.75927 5.11784 10.2606L4.64484 9.46572C6.94893 7.49128 9.5997 6.33425 10.7374 6.33425C11.6843 6.33425 11.842 7.48405 11.369 9.25166L10.1229 14.0857C9.90249 14.9393 9.99655 15.2337 10.2178 15.2337C10.5018 15.2337 11.4335 14.8796 12.349 14.1435L12.8865 14.8787C10.6451 17.1792 8.19682 18.0644 7.25082 18.0644V18.0644Z" fill="#FAFAFA"/>
<path d="M8.5766 2.23909L9.0766 2.25309V2.23909L8.5766 2.23909ZM6.27168 14.8814L6.75619 15.0053L6.75826 14.9965L6.27168 14.8814ZM7.35922 10.2822L6.87488 10.1577L6.87264 10.1672L7.35922 10.2822ZM5.11784 10.2606L4.68817 10.5163L4.96133 10.9753L5.40133 10.6724L5.11784 10.2606ZM4.64484 9.46572L4.31949 9.08605L4 9.35984L4.21517 9.72142L4.64484 9.46572ZM11.369 9.25166L10.8859 9.1224L10.8848 9.12685L11.369 9.25166ZM10.1229 14.0857L10.607 14.2107L10.607 14.2105L10.1229 14.0857ZM12.349 14.1435L12.7527 13.8484L12.4437 13.4258L12.0357 13.7538L12.349 14.1435ZM12.8865 14.8787L13.2446 15.2277L13.5396 14.9249L13.2901 14.5837L12.8865 14.8787ZM10.9443 -1.09711e-07V0.5C11.4231 0.5 11.734 0.660259 11.928 0.869667C12.1282 1.08579 12.2449 1.39905 12.2449 1.76761H12.7449H13.2449C13.2449 1.19229 13.0615 0.621755 12.6615 0.190039C12.2553 -0.24839 11.6659 -0.5 10.9443 -0.5V-1.09711e-07ZM12.7449 1.76761H12.2449C12.2449 2.65865 11.4377 3.5365 10.345 3.5365V4.0365V4.5365C11.9666 4.5365 13.2449 3.23397 13.2449 1.76761H12.7449ZM10.345 4.0365V3.5365C9.8752 3.5365 9.56703 3.39838 9.3794 3.20739C9.19241 3.01705 9.06357 2.71157 9.07641 2.25308L8.5766 2.23909L8.0768 2.2251C8.05828 2.88661 8.24522 3.47983 8.66605 3.9082C9.08624 4.33591 9.67794 4.5365 10.345 4.5365V4.0365ZM8.5766 2.23909L9.0766 2.23909C9.0766 1.51833 9.69379 0.5 10.9443 0.5V-1.09711e-07V-0.5C9.03787 -0.5 8.0766 1.07573 8.0766 2.23909L8.5766 2.23909ZM10.9443 -1.09711e-07M7.25082 18.0644V17.5644C7.06092 17.5644 6.92566 17.5342 6.83165 17.4863C6.74855 17.444 6.6735 17.3764 6.61427 17.2429C6.47812 16.936 6.429 16.2853 6.75611 15.0052L6.27168 14.8814L5.78725 14.7576C5.45144 16.0717 5.418 17.0124 5.7002 17.6485C5.85015 17.9865 6.08494 18.2282 6.37787 18.3774C6.65989 18.521 6.96683 18.5644 7.25082 18.5644V18.0644ZM6.27168 14.8814L6.75826 14.9965L7.8458 10.3973L7.35922 10.2822L6.87264 10.1672L5.7851 14.7664L6.27168 14.8814ZM7.35922 10.2822L7.84347 10.4067C7.93513 10.0502 8.00709 9.7361 8.0126 9.50306C8.01522 9.39232 8.00741 9.20758 7.89979 9.03959C7.76176 8.82412 7.54174 8.75166 7.35922 8.75166V9.25166V9.75166C7.33218 9.75166 7.27793 9.74722 7.2143 9.71675C7.14609 9.68408 7.09281 9.63373 7.05775 9.579C7.00033 9.48936 7.01418 9.42441 7.01288 9.47942C7.01194 9.51948 7.00365 9.59241 6.97956 9.71348C6.95616 9.83113 6.92141 9.97709 6.87497 10.1577L7.35922 10.2822ZM7.35922 9.25166V8.75166C7.1961 8.75166 6.99314 8.81134 6.83374 8.86438C6.64939 8.92573 6.43191 9.01078 6.20495 9.10996C5.75457 9.30676 5.23405 9.57359 4.83436 9.84869L5.11784 10.2606L5.40133 10.6724C5.72995 10.4462 6.18812 10.2086 6.60537 10.0263C6.81221 9.93591 7.00076 9.86272 7.1495 9.81323C7.32318 9.75543 7.38035 9.75166 7.35922 9.75166V9.25166ZM5.11784 10.2606L5.54752 10.0049L5.07452 9.21003L4.64484 9.46572L4.21517 9.72142L4.68817 10.5163L5.11784 10.2606ZM4.64484 9.46572L4.97019 9.84539C6.08873 8.88688 7.29179 8.12688 8.3487 7.60848C9.42716 7.0795 10.2882 6.83425 10.7374 6.83425V6.33425V5.83425C10.0489 5.83425 9.0157 6.16751 7.90833 6.71066C6.77941 7.26438 5.50504 8.07012 4.31949 9.08605L4.64484 9.46572ZM10.7374 6.33425V6.83425C10.8656 6.83425 10.9218 6.86943 10.9552 6.90159C10.998 6.94287 11.0577 7.03424 11.0948 7.22535C11.1714 7.62021 11.1167 8.26001 10.886 9.12241L11.369 9.25166L11.852 9.38091C12.0942 8.4757 12.1972 7.6568 12.0765 7.03485C12.0149 6.71756 11.8872 6.411 11.649 6.18145C11.4013 5.94279 11.0827 5.83425 10.7374 5.83425V6.33425ZM11.369 9.25166L10.8848 9.12685L9.63869 13.9609L10.1229 14.0857L10.607 14.2105L11.8531 9.37647L11.369 9.25166ZM10.1229 14.0857L9.63874 13.9607C9.5254 14.3997 9.47226 14.7646 9.50897 15.0448C9.52775 15.1881 9.57662 15.3626 9.70539 15.507C9.84926 15.6685 10.0399 15.7337 10.2178 15.7337V15.2337V14.7337C10.2851 14.7337 10.381 14.7621 10.4519 14.8417C10.5077 14.9043 10.5053 14.9518 10.5005 14.9148C10.4899 14.8344 10.5 14.6253 10.607 14.2107L10.1229 14.0857ZM10.2178 15.2337V15.7337C10.3675 15.7337 10.5383 15.6923 10.6924 15.6437C10.859 15.5911 11.0518 15.515 11.2598 15.4169C11.6759 15.2207 12.1717 14.9276 12.6623 14.5332L12.349 14.1435L12.0357 13.7538C11.6107 14.0955 11.1829 14.3476 10.8333 14.5124C10.6585 14.5949 10.5079 14.6533 10.3914 14.6901C10.2623 14.7308 10.2102 14.7337 10.2178 14.7337V15.2337ZM12.349 14.1435L11.9454 14.4386L12.4829 15.1738L12.8865 14.8787L13.2901 14.5837L12.7527 13.8484L12.349 14.1435ZM12.8865 14.8787L12.5284 14.5298C11.4483 15.6384 10.3215 16.4025 9.35802 16.8877C8.37792 17.3812 7.61115 17.5644 7.25082 17.5644V18.0644V18.5644C7.83649 18.5644 8.76688 18.305 9.80778 17.7808C10.8653 17.2483 12.0833 16.4196 13.2446 15.2277L12.8865 14.8787ZM7.25082 18.0644" fill="black"/>
</g>
<defs>
<filter id="filter0_d_5_201" x="0" y="-0.5" width="17.5396" height="27.0644" filterUnits="userSpaceOnUse" color-interpolation-filters="sRGB">
<feFlood flood-opacity="0" result="BackgroundImageFix"/>
<feColorMatrix in="SourceAlpha" type="matrix" values="0 0 0 0 0 0 0 0 0 0 0 0 0 0 0 0 0 0 127 0" result="hardAlpha"/>
<feOffset dy="4"/>
<feGaussianBlur stdDeviation="2"/>
<feComposite in2="hardAlpha" operator="out"/>
<feColorMatrix type="matrix" values="0 0 0 0 0 0 0 0 0 0 0 0 0 0 0 0 0 0 0.25 0"/>
<feBlend mode="normal" in2="BackgroundImageFix" result="effect1_dropShadow_5_201"/>
<feBlend mode="normal" in="SourceGraphic" in2="effect1_dropShadow_5_201" result="shape"/>
</filter>
</defs>
</svg>
